<svg xmlns="http://www.w3.org/2000/svg" viewBox="0 0 482.48 162.15" width="482.48" height="162.15" fill="none" role="img" aria-label="Paysi">
  <title>Paysi &#8212; assinatura negativa</title>
  <path fill="#FFFFFF" fill-rule="evenodd" transform="translate(0 0.00) scale(1.58000)" d="M14 0H58A14 14 0 0 1 72 14V69A14 14 0 0 1 58 83H31A5 5 0 0 0 26 88V91A9 9 0 0 1 17 100H9A9 9 0 0 1 0 91V14A14 14 0 0 1 14 0ZM16.5 12H55.5A5.5 5.5 0 0 1 61 17.5V25.5A5.5 5.5 0 0 1 55.5 31H16.5A5.5 5.5 0 0 1 11 25.5V17.5A5.5 5.5 0 0 1 16.5 12ZM13.5 39H20.5A2.5 2.5 0 0 1 23 41.5V45.5A2.5 2.5 0 0 1 20.5 48H13.5A2.5 2.5 0 0 1 11 45.5V41.5A2.5 2.5 0 0 1 13.5 39ZM32.5 39H39.5A2.5 2.5 0 0 1 42 41.5V45.5A2.5 2.5 0 0 1 39.5 48H32.5A2.5 2.5 0 0 1 30 45.5V41.5A2.5 2.5 0 0 1 32.5 39ZM51.5 39H58.5A2.5 2.5 0 0 1 61 41.5V45.5A2.5 2.5 0 0 1 58.5 48H51.5A2.5 2.5 0 0 1 49 45.5V41.5A2.5 2.5 0 0 1 51.5 39ZM13.5 52H20.5A2.5 2.5 0 0 1 23 54.5V58.5A2.5 2.5 0 0 1 20.5 61H13.5A2.5 2.5 0 0 1 11 58.5V54.5A2.5 2.5 0 0 1 13.5 52ZM32.5 52H39.5A2.5 2.5 0 0 1 42 54.5V58.5A2.5 2.5 0 0 1 39.5 61H32.5A2.5 2.5 0 0 1 30 58.5V54.5A2.5 2.5 0 0 1 32.5 52ZM51.5 52H58.5A2.5 2.5 0 0 1 61 54.5V58.5A2.5 2.5 0 0 1 58.5 61H51.5A2.5 2.5 0 0 1 49 58.5V54.5A2.5 2.5 0 0 1 51.5 52ZM13.5 65H20.5A2.5 2.5 0 0 1 23 67.5V71.5A2.5 2.5 0 0 1 20.5 74H13.5A2.5 2.5 0 0 1 11 71.5V67.5A2.5 2.5 0 0 1 13.5 65ZM32.5 65H39.5A2.5 2.5 0 0 1 42 67.5V71.5A2.5 2.5 0 0 1 39.5 74H32.5A2.5 2.5 0 0 1 30 71.5V67.5A2.5 2.5 0 0 1 32.5 65ZM51.5 65H58.5A2.5 2.5 0 0 1 61 67.5V71.5A2.5 2.5 0 0 1 58.5 74H51.5A2.5 2.5 0 0 1 49 71.5V67.5A2.5 2.5 0 0 1 51.5 65Z"/>
  <path fill="#FFFFFF" transform="translate(156.76 129.00)" d="M7.45 0.00V-100.00H46.91Q58.12 -100.00 66.34 -96.01Q74.56 -92.01 79.03 -84.63Q83.49 -77.25 83.49 -67.18Q83.49 -57.11 78.96 -49.77Q74.43 -42.42 66.17 -38.39Q57.92 -34.36 46.64 -34.36H28.12V0.00ZM28.12 -51.68H45.57Q53.76 -51.68 58.52 -55.87Q63.29 -60.07 63.29 -67.18Q63.29 -74.36 58.52 -78.52Q53.76 -82.68 45.57 -82.68H28.12Z M109.67 1.21Q99.06 1.21 92.18 -4.09Q85.30 -9.40 85.30 -20.00Q85.30 -27.99 89.13 -32.52Q92.96 -37.05 99.26 -39.13Q105.57 -41.21 112.96 -41.88Q122.69 -42.89 126.58 -43.89Q130.47 -44.90 130.47 -48.32V-48.79Q130.47 -52.68 127.39 -55.17Q124.30 -57.65 118.86 -57.65Q113.36 -57.65 109.94 -55.10Q106.51 -52.55 106.18 -48.46H87.59Q88.26 -59.40 96.58 -65.87Q104.90 -72.35 119.47 -72.35Q134.03 -72.35 142.02 -65.87Q150.00 -59.40 150.00 -48.05V0.00H130.67V-10.00H130.41Q127.59 -4.83 122.69 -1.81Q117.79 1.21 109.67 1.21ZM115.17 -12.55Q122.28 -12.55 126.45 -16.34Q130.61 -20.13 130.61 -25.91V-33.02Q128.93 -32.08 125.04 -31.31Q121.14 -30.54 116.38 -29.80Q111.28 -28.99 107.75 -26.88Q104.23 -24.77 104.23 -20.54Q104.23 -16.78 107.22 -14.66Q110.20 -12.55 115.17 -12.55Z M159.94 28.05V12.42H168.93Q172.49 12.42 174.20 10.70Q175.91 8.99 177.32 4.90L179.27 -0.27L152.02 -70.87H172.76L184.64 -35.84Q185.84 -32.01 187.02 -28.19Q188.19 -24.36 189.33 -20.54Q190.48 -24.36 191.68 -28.22Q192.89 -32.08 194.10 -35.84L206.05 -70.87H226.58L195.37 10.94Q192.02 19.80 186.65 23.93Q181.28 28.05 173.03 28.05Z M259.67 1.74Q245.85 1.74 236.82 -4.56Q227.79 -10.87 226.85 -22.28H246.32Q246.85 -17.65 250.21 -15.03Q253.57 -12.42 259.34 -12.42Q264.84 -12.42 267.99 -14.50Q271.15 -16.58 271.15 -19.87Q271.15 -22.68 268.70 -24.40Q266.25 -26.11 261.95 -26.98L249.54 -29.40Q228.46 -33.42 228.46 -50.07Q228.46 -60.13 236.59 -66.24Q244.71 -72.35 258.53 -72.35Q272.29 -72.35 280.68 -65.91Q289.07 -59.46 289.34 -48.39H271.01Q270.95 -52.62 267.63 -55.47Q264.30 -58.32 259.07 -58.32Q253.97 -58.32 251.08 -56.14Q248.20 -53.96 248.20 -50.81Q248.20 -48.05 250.44 -46.31Q252.69 -44.56 256.79 -43.69L270.21 -41.07Q280.95 -38.99 286.01 -34.26Q291.08 -29.53 291.08 -21.68Q291.08 -14.63 287.09 -9.36Q283.10 -4.09 276.01 -1.17Q268.93 1.74 259.67 1.74Z M298.94 0.00V-70.87H318.74V0.00ZM308.80 -79.80Q303.90 -79.80 300.68 -82.79Q297.46 -85.77 297.46 -90.34Q297.46 -94.90 300.68 -97.89Q303.90 -100.87 308.80 -100.87Q313.63 -100.87 316.86 -97.89Q320.08 -94.90 320.08 -90.34Q320.08 -85.77 316.86 -82.79Q313.63 -79.80 308.80 -79.80Z"/>
</svg>
